# xmcd
#
# Track frame offsets: 
#        180
#        20920
#        38364
#        59565
#        82225
#        102979
#        126535
#        147592
#        170834
#        193838
#        207307
#        233924
#        256143
#        278142
#        297555
#
# Disc length: 4236 seconds
#
# Revision: 1
# Processed by: cddbd v1.5.2PL0 Copyright (c) Steve Scherf et al.
# Submitted via: ExactAudioCopy v0.99pb5
#
DISCID=f6108a0f
DTITLE=Various Artist - Hits Inmortales de la Salsa [CD 1)
DYEAR=1999
DGENRE=Salsa
TTITLE0=La vida es un carnaval
TTITLE1=Demasiado corazon
TTITLE2=Persona ideal
TTITLE3=Buenaventura y caney
TTITLE4=Hasta ayer
TTITLE5=Perdoname
TTITLE6=Si estuvieras conmigo
TTITLE7=A donde iras
TTITLE8=La quiero a morir
TTITLE9=Azucar negra
TTITLE10=Vivir lo nuestro
TTITLE11=Sin sentimientos
TTITLE12=Mujer divina
TTITLE13=La magia de tus 15 años
TTITLE14=No hay cama pa' tanta gente
EXTD=YEAR: 1999
EXTT0=
EXTT1=
EXTT2=
EXTT3=
EXTT4=
EXTT5=
EXTT6=
EXTT7=
EXTT8=
EXTT9=
EXTT10=
EXTT11=
EXTT12=
EXTT13=
EXTT14=
PLAYORDER=
